<?xml version="1.0" encoding="UTF-8" standalone="no"?>
<!-- Created with Inkscape (http://www.inkscape.org/) -->

<svg
   xmlns:dc="http://purl.org/dc/elements/1.1/"
   xmlns:cc="http://creativecommons.org/ns#"
   xmlns:rdf="http://www.w3.org/1999/02/22-rdf-syntax-ns#"
   xmlns:svg="http://www.w3.org/2000/svg"
   xmlns="http://www.w3.org/2000/svg"
   xmlns:sodipodi="http://sodipodi.sourceforge.net/DTD/sodipodi-0.dtd"
   xmlns:inkscape="http://www.inkscape.org/namespaces/inkscape"
   width="243.62132"
   height="237.39253"
   id="svg4483"
   version="1.1"
   inkscape:version="0.48.3.1 r9886"
   sodipodi:docname="Novo documento 5">
  <defs
     id="defs4485" />
  <sodipodi:namedview
     id="base"
     pagecolor="#ffffff"
     bordercolor="#666666"
     borderopacity="1.0"
     inkscape:pageopacity="0.0"
     inkscape:pageshadow="2"
     inkscape:zoom="0.35"
     inkscape:cx="346.09637"
     inkscape:cy="170.12484"
     inkscape:document-units="px"
     inkscape:current-layer="layer1"
     showgrid="false"
     inkscape:window-width="1920"
     inkscape:window-height="1025"
     inkscape:window-x="0"
     inkscape:window-y="32"
     inkscape:window-maximized="1"
     fit-margin-top="0"
     fit-margin-left="0"
     fit-margin-right="0"
     fit-margin-bottom="0" />
  <metadata
     id="metadata4488">
    <rdf:RDF>
      <cc:Work
         rdf:about="">
        <dc:format>image/svg+xml</dc:format>
        <dc:type
           rdf:resource="http://purl.org/dc/dcmitype/StillImage" />
        <dc:title></dc:title>
      </cc:Work>
    </rdf:RDF>
  </metadata>
  <g
     inkscape:label="Camada 1"
     inkscape:groupmode="layer"
     id="layer1"
     transform="translate(-3.903626,-7.9516394)">
    <g
       id="g4800"
       transform="translate(-22.857143,-231.42857)">
      <g
         inkscape:export-ydpi="18.240665"
         inkscape:export-xdpi="18.240665"
         inkscape:export-filename="/home/janito/Desktop/48.png"
         id="g9100"
         transform="matrix(1.7758628,0,0,1.7758629,-245.8559,-170.92956)">
        <path
           sodipodi:nodetypes="csccc"
           inkscape:connector-curvature="0"
           id="path8319"
           d="m 194.35865,277.22563 c 0,0 -2.26491,-15.37803 -1.10992,-19.01193 2.53546,-7.97724 4.39881,-22.71192 4.39881,-22.71192 7.37243,3.03137 12.68967,8.54401 17.38301,14.80988 z"
           style="fill:#483737;fill-opacity:0.99404554;stroke:none" />
        <path
           style="fill:#483737;fill-opacity:0.99404554;stroke:none"
           d="m 276.83514,276.81237 c 0,0 2.57514,-15.32913 1.4938,-18.98562 -2.37378,-8.02685 -3.93906,-22.79616 -3.93906,-22.79616 -7.43216,2.88181 -12.85969,8.28589 -17.67866,14.45566 z"
           id="path9015"
           inkscape:connector-curvature="0"
           sodipodi:nodetypes="csccc" />
        <path
           style="fill:#644d4d;fill-opacity:1;stroke:none"
           d="m 197.55276,269.82607 c 0,0 -1.18352,-12.97191 -0.27403,-16.01361 1.99652,-6.67721 1.36392,-14.21092 0.46397,-18.11069 7.60524,7.53707 10.59231,11.95134 12.58813,18.09603 z"
           id="path9096"
           inkscape:connector-curvature="0"
           sodipodi:nodetypes="csccc" />
        <path
           sodipodi:nodetypes="csccc"
           inkscape:connector-curvature="0"
           id="path9098"
           d="m 274.52146,269.54324 c 0,0 1.18352,-12.97191 0.27403,-16.01361 -1.99652,-6.67721 -1.36392,-14.21092 -0.46397,-18.11069 -7.60524,7.53707 -10.59231,11.95134 -12.58813,18.09603 z"
           style="fill:#644d4d;fill-opacity:1;stroke:none" />
        <path
           style="fill:#d1c4c4;fill-opacity:1;stroke:none"
           d="m 184.12591,308.77906 c -0.17596,-29.98601 36.02592,-86.74899 70.2056,-61.11423 25.06711,18.80033 31.09474,35.04736 36.36549,60.60915 0,0 -35.3512,13.03254 -53.37556,13.1318 -18.16697,0.10005 -53.19553,-12.62672 -53.19553,-12.62672 z"
           id="path8317"
           inkscape:connector-curvature="0"
           sodipodi:nodetypes="cscsc" />
        <path
           id="path9006"
           d="m 238.28125,246.53125 c 0.0766,0.14727 0.1402,0.28811 0.21875,0.4375 1.55612,2.59029 3.46743,5.49808 4.15625,8.53125 -2.21968,-2.1789 -4.93703,-3.21135 -7.75,-4.6875 -1.63733,-0.75495 -3.39659,-1.77429 -4.96875,-3.46875 -0.72931,0.19466 -1.45783,0.42383 -2.1875,0.6875 2.22902,2.146 4.7793,4.59143 6,7.46875 -2.58653,-1.96607 -5.61936,-2.45763 -8.78125,-3.375 -1.14053,-0.28017 -2.31845,-0.62594 -3.53125,-1.09375 -11.69571,6.92419 -21.40272,21.21525 -26.75,35 -2.29895,0.75532 -4.18064,2.074 -5.65625,3.5 1.44206,0.29976 2.79432,0.80024 3.9375,1.4375 -0.19836,0.0462 -0.39648,0.0732 -0.59375,0.125 -2.28318,0.56593 -4.37849,1.75634 -5.625,3.34375 1.87443,-0.077 3.4414,0.62444 4.75,1.5 -2.34423,1.37542 -4.28792,3.09598 -5.8125,4.96875 1.71857,-0.0684 3.3893,0.10057 4.9375,0.4375 -0.21682,1.75457 -0.32188,3.45897 -0.3125,5.0625 0,0 30.97056,11.30755 47.03125,11.21875 15.93461,-0.0881 47.1875,-11.65625 47.1875,-11.65625 -0.32803,-1.59666 -0.65963,-3.1378 -1,-4.65625 1.50125,-0.31182 3.09293,-0.47217 4.75,-0.40625 -1.53074,-1.88033 -3.48678,-3.59072 -5.84375,-4.96875 1.3126,-0.88245 2.92773,-1.57748 4.8125,-1.5 -1.24651,-1.58741 -3.34182,-2.77782 -5.625,-3.34375 -0.19374,-0.0508 -0.39895,-0.0795 -0.59375,-0.125 1.13987,-0.63285 2.47107,-1.13917 3.90625,-1.4375 -1.50584,-1.45521 -3.41676,-2.78364 -5.78125,-3.53125 -4.59601,-12.37813 -11.79075,-22.70154 -26.78125,-33.8125 -0.98417,-0.72947 -2.08272,-1.41849 -3.21875,-2.0625 0.5529,1.75764 0.83558,3.53185 0.59375,5.21875 -1.12152,-2.83179 -3.45109,-4.55887 -5.8125,-6.03125 -1.18777,-0.74687 -2.36357,-1.57472 -3.53125,-2.53125 -0.7319,-0.13383 -1.44224,-0.21576 -2.125,-0.25 z"
           style="fill:#e9e2e2;fill-opacity:1;stroke:none"
           inkscape:connector-curvature="0" />
        <path
           sodipodi:nodetypes="ssss"
           inkscape:connector-curvature="0"
           id="path8544"
           d="m 254.20956,265.56698 c 8.35221,-1.11934 8.53458,7.1072 5.18321,9.6045 -3.22785,2.40526 -9.23339,1.24143 -8.57607,-5.14021 0.21855,-2.12178 1.59999,-4.22401 3.39286,-4.46429 z"
           style="fill:#d1c4c4;fill-opacity:1;stroke:none" />
        <path
           sodipodi:nodetypes="ccccccc"
           inkscape:connector-curvature="0"
           id="path8333"
           d="m 214.07984,299.35655 c 12.56376,7.05447 22.67187,5.52718 22.86633,-12.49522 -0.19045,18.20751 9.21244,18.82938 21.72314,12.25619 -2.69592,3.98033 -9.53177,6.59235 -16.48817,7.48423 -3.01253,5.9691 -7.84917,6.9899 -11.54739,-0.0924 -7.83374,-0.7514 -14.3634,-3.21671 -16.55391,-7.15279 z"
           style="fill:#d1c4c4;fill-opacity:1;stroke:none" />
        <path
           sodipodi:nodetypes="sssssss"
           inkscape:connector-curvature="0"
           id="path8327"
           d="m 229.80401,290.3844 c -2.36504,-1.57898 -3.67573,-4.21858 -3.87349,-7.38131 -0.21242,-3.39722 6.74935,-4.15468 10.82412,-4.30088 4.53747,-0.16279 11.88636,1.84538 10.76942,4.88223 -1.1875,3.22869 -1.40219,3.71635 -2.97027,6.40142 -1.0919,1.8697 -5.02981,-0.29507 -8.06099,-0.40932 -2.1617,-0.0815 -4.81247,2.06055 -6.68879,0.80786 z"
           style="fill:#483737;fill-opacity:0.99215896;stroke:none" />
        <path
           inkscape:connector-curvature="0"
           id="path7504"
           d="m 221.04514,268.94634 c 0,1.22292 -0.99137,2.21429 -2.21429,2.21429 -1.22291,0 -2.21429,-0.99137 -2.21429,-2.21429 0,-1.22291 0.99138,-2.21429 2.21429,-2.21429 1.22292,0 2.21429,0.99138 2.21429,2.21429 z"
           style="fill:#000000;stroke:none" />
        <path
           style="fill:#d1c4c4;fill-opacity:1;stroke:none"
           d="m 218.54034,265.56698 c -8.35221,-1.11934 -8.53458,7.1072 -5.18321,9.6045 3.22785,2.40526 9.23339,1.24143 8.57607,-5.14021 -0.21855,-2.12178 -1.59999,-4.22401 -3.39286,-4.46429 z"
           id="path8541"
           inkscape:connector-curvature="0"
           sodipodi:nodetypes="ssss" />
        <path
           sodipodi:nodetypes="ssss"
           inkscape:connector-curvature="0"
           id="path8357"
           d="m 220.02297,264.08435 c -8.35221,-1.11934 -8.53458,7.1072 -5.18321,9.6045 3.22785,2.40526 9.23339,1.24143 8.57607,-5.14021 -0.21855,-2.12178 -1.59999,-4.22401 -3.39286,-4.46429 z"
           style="fill:#f2f2f2;fill-opacity:1;stroke:none" />
        <path
           style="fill:#f9f9f9;fill-opacity:1;stroke:none"
           d="m 220.73823,265.7763 c -6.39217,-0.85666 -6.53174,5.43932 -3.96685,7.35056 2.47036,1.84081 7.06655,0.9501 6.56348,-3.93393 -0.16725,-1.62385 -1.2245,-3.23274 -2.59663,-3.41663 z"
           id="path8952"
           inkscape:connector-curvature="0"
           sodipodi:nodetypes="ssss" />
        <path
           inkscape:connector-curvature="0"
           id="path8950"
           d="m 216.1258,268.94634 c 0,1.22292 0.99137,2.21429 2.21429,2.21429 1.22291,0 2.21429,-0.99137 2.21429,-2.21429 0,-1.22291 -0.99138,-2.21429 -2.21429,-2.21429 -1.22292,0 -2.21429,0.99138 -2.21429,2.21429 z"
           style="fill:#2c89a0;stroke:none" />
        <path
           style="fill:#000000;stroke:none"
           d="m 257.00275,268.94634 c 0,1.22292 -0.99137,2.21429 -2.21429,2.21429 -1.22291,0 -2.21429,-0.99137 -2.21429,-2.21429 0,-1.22291 0.99138,-2.21429 2.21429,-2.21429 1.22292,0 2.21429,0.99138 2.21429,2.21429 z"
           id="path8966"
           inkscape:connector-curvature="0" />
        <path
           style="fill:#f2f2f2;fill-opacity:1;stroke:none"
           d="m 255.98058,264.08435 c -8.35221,-1.11934 -8.53458,7.1072 -5.18321,9.6045 3.22785,2.40526 9.23339,1.24143 8.57607,-5.14021 -0.21855,-2.12178 -1.59999,-4.22401 -3.39286,-4.46429 z"
           id="path8970"
           inkscape:connector-curvature="0"
           sodipodi:nodetypes="ssss" />
        <path
           sodipodi:nodetypes="ssss"
           inkscape:connector-curvature="0"
           id="path8972"
           d="m 256.69584,265.7763 c -6.39217,-0.85666 -6.53174,5.43932 -3.96685,7.35056 2.47036,1.84081 7.06655,0.9501 6.56348,-3.93393 -0.16725,-1.62385 -1.2245,-3.23274 -2.59663,-3.41663 z"
           style="fill:#f9f9f9;fill-opacity:1;stroke:none" />
        <path
           style="fill:#2c89a0;stroke:none"
           d="m 252.08341,268.94634 c 0,1.22292 0.99137,2.21429 2.21429,2.21429 1.22291,0 2.21429,-0.99137 2.21429,-2.21429 0,-1.22291 -0.99138,-2.21429 -2.21429,-2.21429 -1.22292,0 -2.21429,0.99138 -2.21429,2.21429 z"
           id="path8974"
           inkscape:connector-curvature="0" />
        <path
           inkscape:connector-curvature="0"
           id="path8976"
           d="m 254.58534,268.43669 c 0,0.48085 0.38981,0.87066 0.87066,0.87066 0.48085,0 0.87066,-0.38981 0.87066,-0.87066 0,-0.48086 -0.38981,-0.87066 -0.87066,-0.87066 -0.48085,0 -0.87066,0.3898 -0.87066,0.87066 z"
           style="fill:#f9f9f9;fill-opacity:1;stroke:none" />
        <path
           style="fill:#644d4d;fill-opacity:1;stroke:none"
           d="m 232.42458,285.79553 c -1.47675,-0.98593 -2.29516,-2.63413 -2.41865,-4.60897 -0.13263,-2.12127 4.15652,-2.47851 6.70085,-2.5698 2.83325,-0.10165 7.47983,1.03655 6.7824,2.9328 -0.74148,2.01603 -0.87554,2.32053 -1.85467,3.99712 -0.68179,1.16746 -3.14067,-0.18425 -5.03337,-0.25559 -1.34979,-0.0509 -3.00496,1.28663 -4.17656,0.50444 z"
           id="path8506"
           inkscape:connector-curvature="0"
           sodipodi:nodetypes="sssssss" />
        <path
           style="fill:#f9f9f9;fill-opacity:1;stroke:none"
           d="m 218.53901,268.43669 c 0,0.48085 0.38981,0.87066 0.87066,0.87066 0.48085,0 0.87066,-0.38981 0.87066,-0.87066 0,-0.48086 -0.38981,-0.87066 -0.87066,-0.87066 -0.48085,0 -0.87066,0.3898 -0.87066,0.87066 z"
           id="path8551"
           inkscape:connector-curvature="0" />
        <path
           sodipodi:nodetypes="scs"
           inkscape:connector-curvature="0"
           id="path8553"
           d="m 223.5058,292.927 c 1.19977,-0.84633 -0.66545,-3.5971 -2.40926,-2.08494 -1.48537,1.31392 0.68862,3.29871 2.40926,2.08494 z"
           style="fill:#d1c4c4;fill-opacity:1;stroke:none" />
        <path
           sodipodi:nodetypes="ssss"
           inkscape:connector-curvature="0"
           id="path8558"
           d="m 218.42982,294.09132 c -0.66053,0.22018 -0.68398,0.69057 -0.60231,1.11196 0.43045,2.22093 2.72662,1.37377 2.95871,-0.14706 0.13643,-0.8939 -0.40422,-1.61563 -2.3564,-0.9649 z"
           style="fill:#d1c4c4;fill-opacity:1;stroke:none" />
        <path
           sodipodi:nodetypes="sssss"
           inkscape:connector-curvature="0"
           id="path8560"
           d="m 225.64911,297.54158 c -0.18752,-0.58553 -0.88767,-1.2715 -1.85328,-1.31978 -0.54656,-0.0273 -1.38452,0.66026 -1.57529,1.04179 -0.31921,0.63842 -0.0754,1.14715 0.0463,1.34362 0.87835,1.41756 4.01587,0.91283 3.38227,-1.06563 z"
           style="fill:#d1c4c4;fill-opacity:1;stroke:none" />
        <path
           inkscape:connector-curvature="0"
           id="path8335"
           d="m 210.625,287.11949 c -4.37535,-0.42067 -8.98259,0.31196 -13.375,2.46875 a 0.50005,0.50005 0 1 0 0.4375,0.875 c 8.44557,-4.14699 17.73177,-2.7572 24.28125,1.875 a 0.50316382,0.50316382 0 1 0 0.59375,-0.8125 c -3.4188,-2.41799 -7.56215,-3.98558 -11.9375,-4.40625 z"
           style="font-size:medium;font-style:normal;font-variant:normal;font-weight:normal;font-stretch:normal;text-indent:0;text-align:start;text-decoration:none;line-height:normal;letter-spacing:normal;word-spacing:normal;text-transform:none;direction:ltr;block-progression:tb;writing-mode:lr-tb;text-anchor:start;baseline-shift:baseline;color:#000000;fill:#483737;fill-opacity:1;stroke:none;stroke-width:1px;marker:none;visibility:visible;display:inline;overflow:visible;enable-background:accumulate;font-family:Sans;-inkscape-font-specification:Sans" />
        <path
           sodipodi:nodetypes="cc"
           inkscape:connector-curvature="0"
           id="path8337"
           d="m 219.32006,295.07452 c -5.92772,-3.0193 -15.72762,-1.39937 -20.97281,3.60102"
           style="fill:none;stroke:#483737;stroke-width:0.98776442px;stroke-linecap:round;stroke-linejoin:round;stroke-opacity:1" />
        <path
           sodipodi:nodetypes="cc"
           inkscape:connector-curvature="0"
           id="path8339"
           d="m 223.95729,298.01717 c -9.03645,-1.85429 -14.28243,1.85816 -17.83699,5.30894"
           style="fill:none;stroke:#483737;stroke-width:0.98776442px;stroke-linecap:round;stroke-linejoin:round;stroke-opacity:1" />
        <path
           style="fill:#d1c4c4;fill-opacity:1;stroke:none"
           d="m 252.37663,292.927 c -1.19977,-0.84633 0.66545,-3.5971 2.40926,-2.08494 1.48537,1.31392 -0.68862,3.29871 -2.40926,2.08494 z"
           id="path7705"
           inkscape:connector-curvature="0"
           sodipodi:nodetypes="scs" />
        <path
           style="fill:#d1c4c4;fill-opacity:1;stroke:none"
           d="m 257.45261,294.09132 c 0.66053,0.22018 0.68398,0.69057 0.60231,1.11196 -0.43045,2.22093 -2.72662,1.37377 -2.95871,-0.14706 -0.13643,-0.8939 0.40422,-1.61563 2.3564,-0.9649 z"
           id="path7708"
           inkscape:connector-curvature="0"
           sodipodi:nodetypes="ssss" />
        <path
           style="fill:#d1c4c4;fill-opacity:1;stroke:none"
           d="m 250.23332,297.54158 c 0.18752,-0.58553 0.88767,-1.2715 1.85328,-1.31978 0.54656,-0.0273 1.38452,0.66026 1.57529,1.04179 0.31921,0.63842 0.0754,1.14715 -0.0463,1.34362 -0.87835,1.41756 -4.01587,0.91283 -3.38227,-1.06563 z"
           id="path7710"
           inkscape:connector-curvature="0"
           sodipodi:nodetypes="sssss" />
        <path
           style="fill:none;stroke:#483737;stroke-width:0.98776442px;stroke-linecap:round;stroke-linejoin:round;stroke-opacity:1"
           d="m 253.61863,291.92633 c 6.69354,-4.73409 16.1883,-6.13359 24.8035,-1.90331"
           id="path7712"
           inkscape:connector-curvature="0"
           sodipodi:nodetypes="cc" />
        <path
           style="fill:none;stroke:#483737;stroke-width:0.98776442px;stroke-linecap:round;stroke-linejoin:round;stroke-opacity:1"
           d="m 256.56237,295.07452 c 5.92772,-3.0193 15.72762,-1.39937 20.97281,3.60102"
           id="path7714"
           inkscape:connector-curvature="0"
           sodipodi:nodetypes="cc" />
        <path
           style="fill:none;stroke:#483737;stroke-width:0.98776442px;stroke-linecap:round;stroke-linejoin:round;stroke-opacity:1"
           d="m 251.92514,298.01717 c 9.03645,-1.85429 14.28243,1.85816 17.83699,5.30894"
           id="path7716"
           inkscape:connector-curvature="0"
           sodipodi:nodetypes="cc" />
      </g>
      <g
         inkscape:export-ydpi="18.240665"
         inkscape:export-xdpi="18.240665"
         inkscape:export-filename="/home/janito/Desktop/48.png"
         id="g9135"
         transform="matrix(1.7758628,0,0,1.7758629,-55.919562,-157.35392)">
        <g
           id="g8909">
          <path
             style="fill:#e99859;fill-opacity:1;stroke:none"
             d="m 61.878242,266.54091 c 2.54233,-2.26492 11.277952,-13.15812 13.307102,-14.6075 1.45672,-9.86194 -4.662384,-20.05148 -9.435104,-28.32984 -8.24797,9.2995 -5.671838,34.70935 -3.871998,42.93734 z"
             id="path8491"
             inkscape:connector-curvature="0"
             sodipodi:nodetypes="cccc" />
          <path
             sodipodi:nodetypes="cccc"
             inkscape:connector-curvature="0"
             id="path8497"
             d="m 135.47776,265.84094 c -2.54233,-2.26492 -11.97791,-12.15817 -14.00706,-13.60755 -1.45672,-9.86194 4.56239,-20.55145 9.33511,-28.82981 8.24797,9.2995 6.47179,34.20937 4.67195,42.43736 z"
             style="fill:#e99859;fill-opacity:1;stroke:none" />
          <path
             style="fill:#d17a2b;fill-opacity:1;stroke:none"
             d="m 46.558476,308.77906 c -0.17596,-29.98601 36.02592,-86.74899 70.205604,-61.11423 25.06711,18.80033 31.09474,35.04736 36.36549,60.60915 0,0 -35.3512,13.03254 -53.375564,13.1318 -18.16697,0.10005 -53.19553,-12.62672 -53.19553,-12.62672 z"
             id="path8487"
             inkscape:connector-curvature="0"
             sodipodi:nodetypes="cscsc" />
          <path
             style="fill:#eca771;fill-opacity:1;stroke:none"
             d="m 65.396128,224.91118 7.09958,15.57191 c -3.289224,4.62616 -7.112303,6.98655 -11.199337,8.22668 0,0 0.234848,-10.4695 1.299923,-15.57192 0.591145,-2.83198 2.799834,-8.22667 2.799834,-8.22667 z"
             id="path8903"
             inkscape:connector-curvature="0"
             sodipodi:nodetypes="cccsc" />
          <path
             style="fill:#d17a2b;fill-opacity:1;stroke:none"
             d="m 81.913586,246.34394 c -2.82247,-4.77157 -12.0999,-18.48207 -16.29396,-22.80239 3.67312,6.85684 12.08666,20.66196 8.64385,28.51885 z"
             id="path8489"
             inkscape:connector-curvature="0"
             sodipodi:nodetypes="cccc" />
          <path
             sodipodi:nodetypes="cccc"
             inkscape:connector-curvature="0"
             id="path8495"
             d="m 114.64246,246.34394 c 2.82247,-4.77157 12.0999,-18.48207 16.29396,-22.80239 -3.67312,6.85684 -11.88667,21.16193 -8.44386,29.01882 z"
             style="fill:#d17a2b;fill-opacity:1;stroke:none" />
          <path
             sodipodi:nodetypes="cscsc"
             inkscape:connector-curvature="0"
             id="path8728"
             d="m 52.181113,305.87936 c -0.157392,-26.82188 32.224479,-77.59526 62.797537,-54.66547 22.42204,16.81652 27.81364,31.34918 32.52821,54.21369 0,0 -31.62095,11.65736 -47.743389,11.74614 -16.249998,0.0895 -47.582358,-11.29436 -47.582358,-11.29436 z"
             style="fill:#e99859;fill-opacity:1;stroke:none" />
          <path
             sodipodi:nodetypes="csssc"
             inkscape:connector-curvature="0"
             id="path8834"
             d="m 79.63379,267.7691 c -5.74664,-2.23929 -8.97604,2.73409 -7.54623,6.65733 1.23284,3.38278 6.55983,5.81862 10.38905,0.29259 1.81227,-2.61532 -1.21698,-6.31642 -2.84282,-6.94996 z"
             style="fill:#d17a2b;fill-opacity:1;stroke:none" />
          <path
             style="fill:#d35f5f;fill-opacity:1;stroke:none"
             d="m 109.39719,308.58225 c 2.40903,-1.44542 8.02348,9.05342 8.36805,11.43576 0.40795,2.82051 6.56216,-0.0177 7.36263,-2.65489 1.16784,-3.84744 -5.65925,-13.78704 -6.94351,-13.42011 z"
             id="path8523"
             inkscape:connector-curvature="0"
             sodipodi:nodetypes="csscc" />
          <path
             style="fill:#d97676;fill-opacity:1;stroke:none"
             d="m 121.10034,307.34719 c -0.45099,-0.15747 -2.79254,0.50589 -2.59593,1.18894 0.0124,0.0431 0.0484,0.11004 0.0622,0.15637 -0.037,-0.0326 -0.0986,-0.0809 -0.12482,-0.0939 -1.5047,-0.15988 -3.34426,0.0887 -3.75315,1.32076 -0.43011,1.29599 2.78684,5.27223 3.43335,5.31784 1.03106,0.0727 2.82051,-1.85799 2.98069,-2.4149 0.0492,-0.0426 0.22753,0.0137 0.23762,-0.0684 0.7116,0.0856 2.05945,-0.9672 2.17657,-1.23933 0.20519,-0.47675 -1.94963,-4.00437 -2.41653,-4.16738 z"
             id="path8859"
             inkscape:connector-curvature="0"
             sodipodi:nodetypes="ssccsscccs" />
          <path
             style="font-size:medium;font-style:normal;font-variant:normal;font-weight:normal;font-stretch:normal;text-indent:0;text-align:start;text-decoration:none;line-height:normal;letter-spacing:normal;word-spacing:normal;text-transform:none;direction:ltr;block-progression:tb;writing-mode:lr-tb;text-anchor:start;baseline-shift:baseline;color:#000000;fill:#c83737;fill-opacity:1;stroke:none;stroke-width:1px;marker:none;visibility:visible;display:inline;overflow:visible;enable-background:accumulate;font-family:Sans;-inkscape-font-specification:Sans"
             d="m 118.325,303.83751 -8.53749,4.46875 c 0,0 1.22526,0.3588 2.67252,1.91071 0.79882,0.85659 1.52753,2.03587 2.57748,3.77051 0.57835,0.9555 1.2375,2.22534 1.82805,3.55825 0.7762,1.75194 0.74377,1.88136 0.99072,2.81056 0.50834,0.59158 -0.0482,-1.9032 -0.27549,-2.58814 -0.48611,-1.61293 -2.22254,-4.81821 -2.22254,-4.81821 l -1.99557,-3.38334 c -0.62195,-1.05447 2.70899,-1.71226 3.43727,-2.00406 1.12199,0.86458 1.89604,1.79032 2.46249,2.76876 0.77127,1.33223 1.29328,1.93155 1.88747,4.0938 0.15041,0.54738 0.73267,1.50307 0.57502,-0.92495 -0.0622,-0.95789 -0.79468,-2.22726 -1.64373,-3.69385 -0.59631,-1.03002 -1.01944,-1.87541 -2.10627,-2.925 0.71669,-0.31674 1.43338,-0.47027 2.15007,-1.3188 -0.43669,-0.63624 -0.84563,-1.28288 -1.8,-1.72499 z"
             id="path8543"
             inkscape:connector-curvature="0"
             sodipodi:nodetypes="ccssscccscssssccc" />
          <path
             style="fill:#d17a2b;fill-opacity:1;stroke:none"
             d="m 99.787532,293.9409 c -2.618852,-2.2521 0.03389,11.11033 0.837468,16.09986 8.30179,-0.62144 19.33903,-2.71326 21.33929,-10.71429 -5.9113,3.58472 -10.41793,6.14417 -19.22776,7.01152 z"
             id="path8517"
             inkscape:connector-curvature="0"
             sodipodi:nodetypes="ccccc" />
          <path
             style="fill:#803300;stroke:none"
             d="m 88.534806,286.00342 c -0.77936,3.34155 5.30226,6.92758 8.1741,8.29878 3.846704,1.83666 4.751314,1.33632 7.756294,-0.49938 1.83974,-1.12387 8.11193,-4.21528 6.28431,-8.10437 -4.05491,-8.62864 -18.544074,-5.94376 -22.214704,0.30497 z"
             id="path8505"
             inkscape:connector-curvature="0"
             sodipodi:nodetypes="csssc" />
          <path
             style="fill:#e6e6e6;fill-opacity:1;stroke:none"
             d="m 81.071426,266.36919 c -5.74664,-2.23929 -8.97604,2.73409 -7.54623,6.65733 1.23284,3.38278 7.223391,5.6544 10.389049,0.29263 1.850678,-3.13455 -1.216979,-6.31642 -2.842819,-6.94996 z"
             id="path8533"
             inkscape:connector-curvature="0"
             sodipodi:nodetypes="ssss" />
          <path
             sodipodi:nodetypes="ssss"
             inkscape:connector-curvature="0"
             id="path8730"
             d="m 81.732066,267.33908 c -4.405954,-1.71686 -6.881937,2.09623 -5.785701,5.10418 0.94522,2.59358 5.690434,4.42141 7.965293,0.22436 1.212249,-2.23656 -0.933059,-4.8428 -2.179592,-5.32854 z"
             style="fill:#f9f9f9;fill-opacity:1;stroke:none" />
          <path
             sodipodi:type="arc"
             id="path8535"
             style="fill:#4d4d4d;stroke:none"
             sodipodi:cx="242.85715"
             sodipodi:cy="631.29077"
             sodipodi:rx="1.5"
             sodipodi:ry="1.5"
             d="m 244.35715,631.29077 c 0,0.82843 -0.67158,1.5 -1.5,1.5 -0.82843,0 -1.5,-0.67157 -1.5,-1.5 0,-0.82843 0.67157,-1.5 1.5,-1.5 0.82842,0 1.5,0.67157 1.5,1.5 z"
             transform="matrix(1.1190476,0,0,1.1190476,-191.99735,-435.61095)" />
          <path
             style="fill:#d17a2b;fill-opacity:1;stroke:none"
             d="m 119.35016,267.7691 c 5.74664,-2.23929 8.97604,2.73409 7.54623,6.65733 -1.23284,3.38278 -6.55983,5.81862 -10.38905,0.29259 -1.81227,-2.61532 1.21698,-6.31642 2.84282,-6.94996 z"
             id="path8832"
             inkscape:connector-curvature="0"
             sodipodi:nodetypes="csssc" />
          <path
             sodipodi:nodetypes="csssc"
             inkscape:connector-curvature="0"
             id="path8537"
             d="m 118.15023,266.36919 c 5.74664,-2.23929 8.97604,2.73409 7.54623,6.65733 -1.23284,3.38278 -6.55983,5.81862 -10.38905,0.29259 -1.81227,-2.61532 1.21698,-6.31642 2.84282,-6.94996 z"
             style="fill:#e6e6e6;fill-opacity:1;stroke:none" />
          <path
             style="fill:#f9f9f9;fill-opacity:1;stroke:none"
             d="m 117.54782,267.59263 c 4.58218,-1.78553 7.15719,2.18008 6.01711,5.30833 -0.98302,2.69731 -4.61613,4.2599 -7.96495,0.0738 -1.28557,-1.60698 0.65145,-4.87703 1.94784,-5.3822 z"
             id="path8733"
             inkscape:connector-curvature="0"
             sodipodi:nodetypes="ssss" />
          <path
             transform="matrix(-1.1190476,0,0,1.1190476,393.0189,-435.61095)"
             d="m 244.35715,631.29077 c 0,0.82843 -0.67158,1.5 -1.5,1.5 -0.82843,0 -1.5,-0.67157 -1.5,-1.5 0,-0.82843 0.67157,-1.5 1.5,-1.5 0.82842,0 1.5,0.67157 1.5,1.5 z"
             sodipodi:ry="1.5"
             sodipodi:rx="1.5"
             sodipodi:cy="631.29077"
             sodipodi:cx="242.85715"
             style="fill:#4d4d4d;fill-opacity:1;stroke:none"
             id="path8539"
             sodipodi:type="arc" />
          <path
             transform="matrix(0.4524204,0,0,0.4524204,-30.752133,-15.37532)"
             d="m 244.35715,631.29077 c 0,0.82843 -0.67158,1.5 -1.5,1.5 -0.82843,0 -1.5,-0.67157 -1.5,-1.5 0,-0.82843 0.67157,-1.5 1.5,-1.5 0.82842,0 1.5,0.67157 1.5,1.5 z"
             sodipodi:ry="1.5"
             sodipodi:rx="1.5"
             sodipodi:cy="631.29077"
             sodipodi:cx="242.85715"
             style="fill:#ffffff;stroke:none"
             id="path8741"
             sodipodi:type="arc" />
          <path
             sodipodi:type="arc"
             id="path8746"
             style="fill:#ffffff;stroke:none"
             sodipodi:cx="242.85715"
             sodipodi:cy="631.29077"
             sodipodi:rx="1.5"
             sodipodi:ry="1.5"
             d="m 244.35715,631.29077 c 0,0.82843 -0.67158,1.5 -1.5,1.5 -0.82843,0 -1.5,-0.67157 -1.5,-1.5 0,-0.82843 0.67157,-1.5 1.5,-1.5 0.82842,0 1.5,0.67157 1.5,1.5 z"
             transform="matrix(0.4524204,0,0,0.4524204,10.645415,-15.37532)" />
          <path
             sodipodi:nodetypes="csssc"
             inkscape:connector-curvature="0"
             id="path8864"
             d="m 91.63212,284.40852 c -0.564566,2.42061 3.840931,5.01831 5.921279,6.0116 2.786531,1.33047 3.441831,0.96803 5.618621,-0.36174 1.3327,-0.81414 5.87624,-3.05354 4.55232,-5.87077 -2.93735,-6.25055 -13.433234,-4.30563 -16.09222,0.22091 z"
             style="fill:#a84300;fill-opacity:1;stroke:none" />
          <path
             sodipodi:nodetypes="ccccccccccccc"
             inkscape:connector-curvature="0"
             style="fill:#d17a2b;fill-opacity:1;fill-rule:evenodd;stroke:none"
             d="m 61.6875,241.3125 c 0.563497,3.28592 2.639601,6.41875 4.90625,9.03125 1.100214,1.29931 2.231975,2.52102 3.34375,3.71875 -0.798569,-0.11965 -1.556989,-0.15199 -2.28125,-0.15625 -2.304331,-0.0975 -4.237003,0.36662 -6.25,-0.3125 1.295272,1.68393 3.569231,2.76397 5.15625,3.84375 0.899418,0.62931 1.698436,1.25841 2.1875,1.9375 0.429747,0.64162 0.640412,1.26956 0.46875,1.6875 l 4.378805,-4.62815 c -0.27531,-0.29452 1.423226,-1.10282 1.136032,-1.3469 l 3.578913,-2.9312 c -3.261386,-1.90713 -6.431096,-3.16106 -9.34375,-4.71875 -2.794692,-1.54368 -5.545196,-3.27879 -7.28125,-6.125 z"
             id="path8883" />
          <path
             sodipodi:nodetypes="cccsc"
             inkscape:connector-curvature="0"
             id="path8905"
             d="m 131.39222,224.91118 -7.09958,15.57191 c 3.28923,4.62616 7.1123,6.98655 11.19934,8.22668 0,0 -0.23485,-10.4695 -1.29992,-15.57192 -0.59115,-2.83198 -2.79984,-8.22667 -2.79984,-8.22667 z"
             style="fill:#eca771;fill-opacity:1;stroke:none" />
          <path
             sodipodi:nodetypes="ccccccccccccc"
             id="path8901"
             d="m 134.82789,241.3125 c -0.5635,3.28592 -2.6396,6.41875 -4.90625,9.03125 -1.10022,1.29931 -2.23198,2.52102 -3.34375,3.71875 0.79857,-0.11965 1.55699,-0.15199 2.28125,-0.15625 2.30433,-0.0975 4.237,0.36662 6.25,-0.3125 -1.29528,1.68393 -3.56923,2.76397 -5.15625,3.84375 -0.89942,0.62931 -1.69844,1.25841 -2.1875,1.9375 -0.42975,0.64162 -0.64042,1.26956 -0.46875,1.6875 l -4.23739,-4.48674 c 0.27531,-0.29452 0.13231,-1.66847 -0.7118,-1.06407 l -4.14456,-3.35544 c 3.26138,-1.90713 6.43109,-3.16106 9.34375,-4.71875 2.79469,-1.54368 5.54519,-3.27879 7.28125,-6.125 z"
             style="fill:#d17a2b;fill-opacity:1;fill-rule:evenodd;stroke:none"
             inkscape:connector-curvature="0" />
          <path
             style="fill:#d17a2b;fill-opacity:1;stroke:none"
             d="m 91.362637,279.84191 c 0.714744,-0.84489 5.234296,-3.47752 8.231917,-3.54449 2.866886,-0.064 5.615346,1.67034 8.158416,3.03813 0.3196,0.1719 -0.0149,1.10238 -0.36749,1.01271 -2.26169,-0.57511 -5.0927,-1.97269 -7.717425,-1.88074 -2.756409,0.0966 -6.04341,1.88921 -7.570425,2.24242 -0.604024,0.13972 -1.169776,-0.35409 -0.734993,-0.86803 z"
             id="path8907"
             inkscape:connector-curvature="0"
             sodipodi:nodetypes="sssssss" />
        </g>
        <path
           sodipodi:nodetypes="aaaa"
           inkscape:connector-curvature="0"
           id="path8968"
           d="m 89.829409,294.77636 c -0.609819,-0.83613 -2.657685,-0.59396 -3.08502,0.34857 -0.428693,0.94552 0.742622,2.65358 1.776405,2.55824 1.058107,-0.0976 1.934765,-2.04829 1.308615,-2.90681 z"
           style="fill:#d17a2b;fill-opacity:1;stroke:none" />
        <path
           sodipodi:nodetypes="aaaa"
           inkscape:connector-curvature="0"
           id="path8971"
           d="m 92.88679,300.80704 c -0.207089,-0.94866 -1.915393,-1.57508 -2.722722,-1.03558 -1.086225,0.72589 -1.3158,3.40493 -0.114184,3.91767 1.239862,0.52906 3.124404,-1.56509 2.836906,-2.88209 z"
           style="fill:#d17a2b;fill-opacity:1;stroke:none" />
        <path
           sodipodi:nodetypes="aaaa"
           inkscape:connector-curvature="0"
           id="path8973"
           d="m 81.553794,300.54856 c 0.149716,1.37476 3.008199,2.25414 3.956551,1.24767 0.707228,-0.75056 -0.132413,-2.54451 -1.104052,-2.89011 -1.033742,-0.36768 -2.971288,0.55171 -2.852499,1.64244 z"
           style="fill:#d17a2b;fill-opacity:1;stroke:none" />
        <path
           style="fill:#d17a2b;fill-opacity:1;stroke:none"
           d="m 110.47937,293.41212 c 0.50535,-0.90312 2.56748,-0.90786 3.10457,-0.0233 0.5388,0.8874 -0.41962,2.7234 -1.45738,2.7525 -1.06217,0.0298 -2.16605,-1.80194 -1.64719,-2.72924 z"
           id="path8975"
           inkscape:connector-curvature="0"
           sodipodi:nodetypes="aaaa" />
        <path
           style="fill:#d17a2b;fill-opacity:1;stroke:none"
           d="m 108.16594,299.76543 c 0.092,-0.96663 1.71306,-1.79305 2.57916,-1.35407 1.16532,0.59063 1.71396,3.22291 0.58237,3.87582 -1.16762,0.67369 -3.2893,-1.1798 -3.16153,-2.52175 z"
           id="path8977"
           inkscape:connector-curvature="0"
           sodipodi:nodetypes="aaaa" />
        <path
           style="fill:#d17a2b;fill-opacity:1;stroke:none"
           d="m 119.38649,298.15211 c 0.0159,1.38279 -2.71671,2.59804 -3.77874,1.71235 -0.79199,-0.66051 -0.17315,-2.54207 0.75013,-3.0015 0.98229,-0.4888 3.01596,0.19204 3.02861,1.28915 z"
           id="path8979"
           inkscape:connector-curvature="0"
           sodipodi:nodetypes="aaaa" />
      </g>
      <g
         inkscape:export-ydpi="18.240665"
         inkscape:export-xdpi="18.240665"
         inkscape:export-filename="/home/janito/Desktop/48.png"
         id="g8897"
         transform="matrix(1.7758628,0,0,1.7758629,-509.15193,-71.59834)">
        <path
           style="fill:#784421;fill-opacity:1;stroke:none"
           d="m 391.41164,234.57536 c 7.22126,-6.78999 16.00468,-8.234 22.07945,-5.51108 10.77224,4.82847 13.66607,22.37483 -3.95272,21.91863 -8.27009,-0.21414 -13.94173,-8.87455 -18.12673,-16.40755 z"
           id="path8374"
           inkscape:connector-curvature="0"
           sodipodi:nodetypes="cssc" />
        <path
           sodipodi:nodetypes="cssc"
           inkscape:connector-curvature="0"
           id="path8510"
           d="m 355.73651,234.57536 c -7.22126,-6.78999 -16.00468,-8.234 -22.07945,-5.51108 -10.77224,4.82847 -13.66607,22.37483 3.95272,21.91863 8.27009,-0.21414 13.94173,-8.87455 18.12673,-16.40755 z"
           style="fill:#784421;fill-opacity:1;stroke:none" />
        <path
           style="fill:#a05a2c;fill-opacity:1;stroke:none"
           d="m 329.1864,240.10049 c 1.28425,-7.43702 23.1956,-7.30048 21.3546,1.90455 -0.90696,4.53483 -6.65096,9.42695 -11.10645,7.99054 -5.23644,-1.68817 -11.19705,-4.4001 -10.24815,-9.89509 z"
           id="path8512"
           inkscape:connector-curvature="0"
           sodipodi:nodetypes="ssss" />
        <path
           sodipodi:nodetypes="ccccccccccccccccccc"
           inkscape:connector-curvature="0"
           id="path8557"
           d="m 341.29981,237.54775 -1.17035,1.84511 -3.10333,-1.14868 0.28766,2.42227 -3.28064,0.21554 1.9981,2.26981 -2.1773,1.96686 3.34253,0.36349 -1.31508,2.03515 3.1186,0.0809 -1.25446,1.49878 4.40624,1.45212 6.41072,-6.54911 0.0625,-0.625 1.65625,-3.0625 -2.71875,0.8125 -2.71288,-3.18623 -0.47458,1.84248 z"
           style="fill:#784421;fill-opacity:1;stroke:none" />
        <path
           sodipodi:nodetypes="ssss"
           inkscape:connector-curvature="0"
           id="path8550"
           d="m 419.87211,240.10049 c -1.28425,-7.43702 -23.1956,-7.30048 -21.3546,1.90455 0.90696,4.53483 6.65096,9.42695 11.10645,7.99054 5.23644,-1.68817 11.19705,-4.4001 10.24815,-9.89509 z"
           style="fill:#a05a2c;fill-opacity:1;stroke:none" />
        <path
           sodipodi:nodetypes="cscsc"
           inkscape:connector-curvature="0"
           id="path7474"
           d="m 322.34019,296.16403 c -0.17596,-29.98601 36.02592,-86.74899 70.2056,-61.11423 25.06711,18.80033 31.09474,35.04736 36.36549,60.60915 0,0 -35.3512,13.03254 -53.37556,13.1318 -18.16697,0.10005 -53.19553,-12.62672 -53.19553,-12.62672 z"
           style="fill:#784421;stroke:none" />
        <path
           style="fill:#a05a2c;stroke:none"
           d="m 328.93992,292.76043 c -0.15416,-26.27203 31.56387,-76.00454 61.51017,-53.54482 21.96237,16.47179 27.24344,30.70651 31.86138,53.1023 0,0 -30.97272,11.41838 -46.76464,11.50534 -15.91687,0.0877 -46.60691,-11.06282 -46.60691,-11.06282 z"
           id="path8508"
           inkscape:connector-curvature="0"
           sodipodi:nodetypes="cscsc" />
        <path
           style="fill:#784421;fill-opacity:1;stroke:none"
           d="m 349.88271,260.25367 c 0.7171,3.16814 7.10078,4.54971 9.46428,2.32144 2.15772,-2.03425 1.96944,-7.43888 -1.60714,-8.75 -4.82727,-1.7696 -8.6042,3.12809 -7.85714,6.42856 z"
           id="path8514"
           inkscape:connector-curvature="0"
           sodipodi:nodetypes="aasa" />
        <path
           sodipodi:nodetypes="aasa"
           inkscape:connector-curvature="0"
           id="path8370"
           d="m 350.89286,258.61217 c 0.7171,3.16814 7.10078,4.54971 9.46428,2.32144 2.15772,-2.03425 1.96944,-7.43888 -1.60714,-8.75 -4.82727,-1.7696 -8.6042,3.12809 -7.85714,6.42856 z"
           style="fill:#e6e6e6;stroke:none" />
        <path
           style="fill:#f9f9f9;stroke:none"
           d="m 353.45741,258.42432 c 0.53532,2.58083 5.30083,3.70629 7.06521,1.89109 1.61077,-1.65714 1.47022,-6.05987 -1.19975,-7.12793 -3.60362,-1.44156 -6.42316,2.5482 -5.86546,5.23684 z"
           id="path8522"
           inkscape:connector-curvature="0"
           sodipodi:nodetypes="aasa" />
        <path
           inkscape:connector-curvature="0"
           id="path7482"
           d="m 359.89851,257.29139 c 0,1.23771 -1.00335,2.24107 -2.24107,2.24107 -1.2377,0 -2.24107,-1.00336 -2.24107,-2.24107 0,-1.2377 1.00337,-2.24107 2.24107,-2.24107 1.23772,0 2.24107,1.00337 2.24107,2.24107 z"
           style="fill:#502d16;stroke:none" />
        <path
           sodipodi:nodetypes="aasa"
           inkscape:connector-curvature="0"
           id="path8516"
           d="m 399.41331,260.25367 c -0.7171,3.16814 -7.10078,4.54971 -9.46428,2.32144 -2.15772,-2.03425 -1.96944,-7.43888 1.60714,-8.75 4.82727,-1.7696 8.6042,3.12809 7.85714,6.42856 z"
           style="fill:#784421;fill-opacity:1;stroke:none" />
        <path
           style="fill:#e6e6e6;fill-opacity:1;stroke:none"
           d="m 397.91257,258.61217 c -0.7171,3.16814 -7.10078,4.54971 -9.46428,2.32144 -2.15772,-2.03425 -1.96944,-7.43888 1.60714,-8.75 4.82727,-1.7696 8.6042,3.12809 7.85714,6.42856 z"
           id="path8372"
           inkscape:connector-curvature="0"
           sodipodi:nodetypes="aasa" />
        <path
           id="path8552"
           d="m 394,287.59375 c -0.0758,0.53015 -0.17709,1.02238 -0.375,1.375 -2.63328,4.69183 -9.5981,11.0764 -15.28125,11.71875 -7.87531,0.62686 -17.80143,-5.05146 -21,-11.71875 -0.0398,-0.0829 -0.0659,-0.19475 -0.0937,-0.3125 -0.13484,1.33381 -0.12234,2.36207 0.0937,2.8125 3.19857,6.66729 13.12469,12.34561 21,11.71875 5.68315,-0.64235 12.64797,-7.02692 15.28125,-11.71875 0.46282,-0.82463 0.52699,-2.20742 0.375,-3.875 z"
           style="fill:#784421;fill-opacity:1;stroke:none"
           inkscape:connector-curvature="0" />
        <path
           sodipodi:nodetypes="sscsss"
           inkscape:connector-curvature="0"
           id="path7528"
           d="m 371.58324,262.47984 c -10.66848,2.74174 -15.50103,23.82685 -14.22881,26.47875 3.19857,6.66729 13.099,12.36389 20.97431,11.73703 5.68315,-0.64235 12.6495,-7.0452 15.28278,-11.73703 2.17482,-3.87497 -3.46455,-19.52436 -7.27249,-23.75575 -2.46894,-2.74349 -9.29043,-4.12757 -14.75579,-2.723 z"
           style="fill:#deaa87;stroke:none" />
        <path
           sodipodi:nodetypes="ssss"
           inkscape:connector-curvature="0"
           id="path7534"
           d="m 364.32719,287.18361 c 0.60151,1.99226 2.00759,2.41927 2.57121,2.5442 1.06457,0.23597 1.31965,-1.87826 0.8343,-2.48841 -0.67658,-0.85055 -3.85733,-1.55226 -3.40551,-0.0558 z"
           style="fill:#502d16;fill-opacity:1;stroke:none" />
        <path
           inkscape:connector-curvature="0"
           id="path7536"
           d="m 376.09375,273.625 -0.96875,0.0937 c 0.19071,2.73634 0.003,6.7638 -1.125,9.84375 -0.56392,1.53997 -1.35183,2.83452 -2.40625,3.625 -1.05442,0.79048 -2.36768,1.12877 -4.15625,0.75 l -0.21875,1 c 2.01467,0.42665 3.69524,0.0172 4.96875,-0.9375 1.27351,-0.95473 2.14405,-2.439 2.75,-4.09375 1.2119,-3.30951 1.35449,-7.43682 1.15625,-10.28125 z"
           style="font-size:medium;font-style:normal;font-variant:normal;font-weight:normal;font-stretch:normal;text-indent:0;text-align:start;text-decoration:none;line-height:normal;letter-spacing:normal;word-spacing:normal;text-transform:none;direction:ltr;block-progression:tb;writing-mode:lr-tb;text-anchor:start;baseline-shift:baseline;color:#000000;fill:#502d16;fill-opacity:1;stroke:none;stroke-width:1px;marker:none;visibility:visible;display:inline;overflow:visible;enable-background:accumulate;font-family:Sans;-inkscape-font-specification:Sans" />
        <path
           inkscape:connector-curvature="0"
           id="path7540"
           d="m 375.21875,273.84375 c 0,2.44463 -0.0759,5.24051 0.21875,7.8125 0.29465,2.57199 0.95255,4.97117 2.46875,6.5625 1.23262,1.29365 3.2582,1.96188 5.5,1.3125 l -0.28125,-0.9375 c -1.90706,0.55242 -3.52114,-0.0664 -4.5,-1.09375 -1.2632,-1.32578 -1.90401,-3.49415 -2.1875,-5.96875 -0.28349,-2.4746 -0.21875,-5.22701 -0.21875,-7.6875 l -1,0 z"
           style="font-size:medium;font-style:normal;font-variant:normal;font-weight:normal;font-stretch:normal;text-indent:0;text-align:start;text-decoration:none;line-height:normal;letter-spacing:normal;word-spacing:normal;text-transform:none;direction:ltr;block-progression:tb;writing-mode:lr-tb;text-anchor:start;baseline-shift:baseline;color:#000000;fill:#502d16;fill-opacity:1;stroke:none;stroke-width:1px;marker:none;visibility:visible;display:inline;overflow:visible;enable-background:accumulate;font-family:Sans;-inkscape-font-specification:Sans" />
        <path
           style="fill:#502d16;fill-opacity:1;stroke:none"
           d="m 385.66598,287.18361 c -0.60151,1.99226 -2.00759,2.41927 -2.57121,2.5442 -1.06457,0.23597 -1.31965,-1.87826 -0.8343,-2.48841 0.67658,-0.85055 3.85733,-1.55226 3.40551,-0.0558 z"
           id="path8315"
           inkscape:connector-curvature="0"
           sodipodi:nodetypes="ssss" />
        <path
           sodipodi:nodetypes="aasa"
           inkscape:connector-curvature="0"
           id="path8524"
           d="m 397.47929,258.42432 c -0.53532,2.58083 -5.30083,3.70629 -7.06521,1.89109 -1.61077,-1.65714 -1.47022,-6.05987 1.19975,-7.12793 3.60362,-1.44156 6.42316,2.5482 5.86546,5.23684 z"
           style="fill:#f9f9f9;stroke:none" />
        <path
           style="fill:#502d16;stroke:none"
           d="m 391.03819,257.29139 c 0,1.23771 1.00335,2.24107 2.24107,2.24107 1.2377,0 2.24107,-1.00336 2.24107,-2.24107 0,-1.2377 -1.00337,-2.24107 -2.24107,-2.24107 -1.23772,0 -2.24107,1.00337 -2.24107,2.24107 z"
           id="path8526"
           inkscape:connector-curvature="0" />
        <path
           sodipodi:nodetypes="sssss"
           inkscape:connector-curvature="0"
           id="path7486"
           d="m 379.27673,271.82648 c 0,1.3807 -1.62807,2.5 -3.63642,2.5 -2.00832,0 -3.63642,-1.1193 -3.63642,-2.5 0,-1.38072 1.6281,-2.5 3.63642,-2.5 2.00835,0 3.63642,1.11928 3.63642,2.5 z"
           style="fill:#502d16;fill-opacity:1;stroke:none" />
        <path
           id="path8538"
           d="m 375.84375,261.9375 c -1.44666,0.0249 -2.88366,0.18011 -4.25,0.53125 -3.80656,0.97826 -6.84784,4.33423 -9.15625,8.3125 2.32626,-2.30113 5.04492,-4.05323 8.21875,-4.71875 6.63964,-1.39226 14.90843,-0.0395 18,2.65625 -0.79411,-1.48061 -1.58484,-2.72267 -2.3125,-3.53125 -1.8517,-2.05762 -6.16003,-3.32468 -10.5,-3.25 z"
           style="fill:#e9c6af;stroke:none"
           inkscape:connector-curvature="0" />
        <path
           id="path8562"
           d="m 376.75,269.46875 c -0.93605,0.1965 -1.65625,0.88488 -1.65625,1.71875 0,0.98621 0.99281,1.78125 2.1875,1.78125 0.92591,0 1.69136,-0.48109 2,-1.15625 0,-1.11353 -1.06793,-2.02029 -2.53125,-2.34375 z"
           style="fill:#784421;fill-opacity:1;stroke:none"
           inkscape:connector-curvature="0" />
        <path
           inkscape:connector-curvature="0"
           id="path7864"
           d="m 393.09176,256.6664 c 0,0.59666 0.48368,1.08035 1.08035,1.08035 0.59666,0 1.08036,-0.48369 1.08036,-1.08035 0,-0.59666 -0.4837,-1.08036 -1.08036,-1.08036 -0.59667,0 -1.08035,0.4837 -1.08035,1.08036 z"
           style="fill:#f9f9f9;fill-opacity:1;stroke:none" />
        <path
           style="fill:#f9f9f9;fill-opacity:1;stroke:none"
           d="m 357.28819,256.6664 c 0,0.59666 0.48368,1.08035 1.08035,1.08035 0.59666,0 1.08036,-0.48369 1.08036,-1.08035 0,-0.59666 -0.4837,-1.08036 -1.08036,-1.08036 -0.59667,0 -1.08035,0.4837 -1.08035,1.08036 z"
           id="path7866"
           inkscape:connector-curvature="0" />
        <path
           style="fill:#784421;fill-opacity:1;stroke:none"
           d="m 408.49531,237.54775 1.17035,1.84511 3.10333,-1.14868 -0.28766,2.42227 3.28064,0.21554 -1.9981,2.26981 2.1773,1.96686 -3.34253,0.36349 1.31508,2.03515 -3.1186,0.0809 1.25446,1.49878 -4.40624,1.45212 -6.41072,-6.54911 -0.0625,-0.625 -1.65625,-3.0625 2.71875,0.8125 2.71288,-3.18623 0.47458,1.84248 z"
           id="path8895"
           inkscape:connector-curvature="0"
           sodipodi:nodetypes="ccccccccccccccccccc" />
      </g>
      <text
         inkscape:export-ydpi="18.240665"
         inkscape:export-xdpi="18.240665"
         inkscape:export-filename="/home/janito/Desktop/48.png"
         transform="scale(1.0135379,0.98664295)"
         sodipodi:linespacing="125%"
         id="text3284"
         y="373.62741"
         x="104.99448"
         style="font-size:97.1450882px;font-style:normal;font-variant:normal;font-weight:bold;font-stretch:normal;text-align:start;line-height:125%;letter-spacing:0px;word-spacing:0px;writing-mode:lr-tb;text-anchor:start;fill:#000080;fill-opacity:1;stroke:none;font-family:Sans;-inkscape-font-specification:Sans Bold"
         xml:space="preserve"><tspan
           y="373.62741"
           x="104.99448"
           id="tspan3286"
           sodipodi:role="line">1</tspan></text>
    </g>
  </g>
</svg>
